<svg width="159" height="35" viewBox="0 0 159 35" fill="none" xmlns="http://www.w3.org/2000/svg">
<path d="M1.82712 0V1.1141C1.82712 1.51022 1.50692 1.83042 1.11079 1.83042H0V20.539H1.11079C1.50692 20.539 1.82712 20.8608 1.82712 21.257V22.3677H22.3661V17.8949L18.702 14.2274V12.6132L22.3661 8.94743V4.47454L17.8932 0H1.82712ZM16.0545 17.1785C16.0545 17.5747 15.7327 17.8965 15.3366 17.8965H5.19086C4.79474 17.8965 4.47289 17.5747 4.47289 17.1785V14.1465C4.47289 13.7488 4.79474 13.4286 5.19086 13.4286H15.3366C15.7327 13.4286 16.0545 13.7488 16.0545 14.1465V17.1785ZM17.8932 8.94908H9.9922L8.45723 10.4841C8.26742 10.6739 8.00829 10.7828 7.7376 10.7828H5.19086C4.79474 10.7828 4.47289 10.4626 4.47289 10.0648V4.47619H17.8932V8.94908Z" fill="#1D9BD7"/>
<path d="M32.6851 19.4298C32.4903 19.6246 32.2246 19.7352 31.949 19.7352H29.4121C29.016 19.7352 28.6942 19.4133 28.6942 19.0172V15.6634V0.00165367H26.9149L24.213 2.70024V17.8949L28.6942 22.376H42.1145V17.8949H34.2168L32.6851 19.4265V19.4298Z" fill="#1D9BD7"/>
<path d="M48.4343 17.1785C48.4343 17.5747 48.7561 17.8965 49.1523 17.8965H61.1366C61.5328 17.8965 61.8546 17.5747 61.8546 17.1785V0H66.3275V22.3694H50.0947L43.9597 16.2344V0H48.4326V17.1785H48.4343Z" fill="#1D9BD7"/>
<path d="M70.0048 0.00165367V1.15866C70.0048 1.53003 69.7044 1.83042 69.3331 1.83042H68.1744V22.3694H72.649V13.422H86.0693L90.5438 8.94743V4.47454L86.0693 0.00165367H70.0048ZM86.0693 8.94908H78.1683L76.6333 10.4841C76.4435 10.6739 76.1843 10.7828 75.9137 10.7828H73.3669C72.9708 10.7828 72.649 10.4626 72.649 10.0648V4.47619H86.0693V8.94908Z" fill="#1D9BD7"/>
<path d="M100.856 19.4348C100.665 19.6262 100.407 19.7335 100.137 19.7335H97.5816C97.1855 19.7335 96.8636 19.4117 96.8636 19.0156V0.00165367H95.0844L92.3907 2.70024V17.8965L96.8636 22.3694H110.284V17.8998H102.391L100.856 19.4348Z" fill="#1D9BD7"/>
<path d="M112.131 6.13495V22.3694H116.604V13.422H130.024V22.3694H134.497V0H118.266L112.131 6.13495ZM130.024 10.0648C130.024 10.4626 129.702 10.7828 129.306 10.7828H126.759C126.49 10.7828 126.231 10.6755 126.04 10.4841L124.505 8.94908H116.604V4.47289H130.024V10.0648Z" fill="#1D9BD7"/>
<path d="M156.015 0.0049547H154.239V8.94908L145.291 0.00165367H138.173V1.21313C138.173 1.55479 137.895 1.83207 137.554 1.83207H136.344V22.3694H140.817V5.19417C140.817 4.79804 141.139 4.47619 141.535 4.47619H146.234C146.424 4.47619 146.607 4.55212 146.74 4.68581L149.465 7.4075C149.655 7.59731 149.763 7.85644 149.763 8.12548V8.95073L154.237 13.4253V22.371H158.712V2.70024L156.015 0.0049547Z" fill="#1D9BD7"/>
<path d="M0 27.2929H2.03508C3.78958 27.2929 4.88717 28.3558 4.88717 30.1037C4.88717 31.8516 3.79123 32.898 2.03508 32.898H0V27.2945V27.2929ZM3.75822 30.1037C3.75822 28.9005 3.11617 28.1924 2.03673 28.1924H1.1141V32.0001H2.03673C3.11617 32.0001 3.75822 31.3003 3.75822 30.1037Z" fill="#1D9BD7"/>
<path d="M6.63837 27.2929H10.5781V28.1742H7.75081V29.5755H10.2645V30.4487H7.75081V32.015H10.5781V32.8964H6.63837V27.2929Z" fill="#1D9BD7"/>
<path d="M16.5877 31.2492C16.5877 32.3781 15.665 33.0218 14.3958 33.0218C13.1265 33.0218 12.2122 32.4293 11.9976 31.2095H13.1596C13.2998 31.8021 13.729 32.1322 14.404 32.1322C15.0791 32.1322 15.4505 31.8433 15.4505 31.3911C15.4505 29.9651 12.1049 31.0362 12.1049 28.8031C12.1049 27.9135 12.8377 27.1707 14.1647 27.1707C15.2937 27.1707 16.2493 27.7154 16.4309 28.9747H15.2524C15.1204 28.3476 14.7325 28.0604 14.1317 28.0604C13.5722 28.0604 13.2338 28.3162 13.2338 28.7024C13.2338 30.0459 16.5877 28.9582 16.5877 31.2492Z" fill="#1D9BD7"/>
<path d="M18.2233 27.2929H19.3357V32.8964H18.2233V27.2929Z" fill="#1D9BD7"/>
<path d="M25.3453 32.898L25.2545 32.1899C24.9079 32.7577 24.3236 33.0218 23.6304 33.0218C22.0888 33.0218 21.0754 31.9176 21.0754 30.1037C21.0754 28.2898 22.0888 27.1691 23.7294 27.1691C24.8914 27.1691 25.8718 27.8029 26.1276 29.0243H24.9657C24.7924 28.4235 24.3236 28.0934 23.6964 28.0934C22.7573 28.0934 22.2126 28.851 22.2126 30.1037C22.2126 31.3564 22.782 32.0975 23.7377 32.0975C24.4309 32.0975 24.9904 31.7014 25.0647 30.7705H23.8532V29.9304H26.1194V32.898H25.3453Z" fill="#1D9BD7"/>
<path d="M27.9531 27.2929H29.1233L31.1997 30.622L31.5875 31.3878L31.5463 27.2912H32.6505V32.8947H31.4885L29.4121 29.5739L29.016 28.7915L29.0655 32.8964H27.9531V27.2929Z" fill="#1D9BD7"/>
<path d="M38.8844 31.2492C38.8844 32.3781 37.9618 33.0218 36.6925 33.0218C35.4233 33.0218 34.5089 32.4293 34.2943 31.2095H35.4563C35.5966 31.8021 36.0257 32.1322 36.7008 32.1322C37.3758 32.1322 37.7472 31.8433 37.7472 31.3911C37.7472 29.9651 34.4016 31.0362 34.4016 28.8031C34.4016 27.9135 35.1345 27.1707 36.4615 27.1707C37.5904 27.1707 38.5461 27.7154 38.7276 28.9747H37.5492C37.4171 28.3476 37.0292 28.0604 36.4285 28.0604C35.8689 28.0604 35.5306 28.3162 35.5306 28.7024C35.5306 30.0459 38.8844 28.9582 38.8844 31.2492Z" fill="#1D9BD7"/>
<path d="M42.9265 26.9644H43.9894V34.7202H42.9265V26.9644Z" fill="#1D9BD7"/>
<path d="M48.3369 27.2929H50.372C52.1265 27.2929 53.2241 28.3558 53.2241 30.1037C53.2241 31.8516 52.1281 32.898 50.372 32.898H48.3369V27.2945V27.2929ZM52.0935 30.1037C52.0935 28.9005 51.4514 28.1924 50.372 28.1924H49.4494V32.0001H50.372C51.4514 32.0001 52.0935 31.3003 52.0935 30.1037Z" fill="#1D9BD7"/>
<path d="M54.9736 27.2929H57.1655C58.4265 27.2929 59.2088 27.9283 59.2088 28.95C59.2088 29.5755 58.9365 30.0129 58.4595 30.2687C58.7484 30.4503 58.9217 30.7457 59.0355 31.2079L59.4564 32.898H58.3027L57.9726 31.4142C57.8406 30.8365 57.626 30.721 57.0747 30.721H56.0861V32.8964H54.9736V27.2929ZM56.0877 28.1759V29.8495H57.1176C57.7448 29.8495 58.0733 29.5194 58.0733 29.0094C58.0733 28.4994 57.7349 28.1775 57.1424 28.1775H56.0877V28.1759Z" fill="#1D9BD7"/>
<path d="M64.5367 31.7361H62.1467L61.7176 32.898H60.6052L62.7145 27.2945H64.025L66.1344 32.898H64.9642L64.535 31.7361H64.5367ZM62.4686 30.8778H64.2165L63.5084 28.9582L63.3434 28.3822L63.1783 28.9582L62.4702 30.8778H62.4686Z" fill="#1D9BD7"/>
<path d="M67.6149 27.2929H71.5547V28.1742H68.7273V29.7571H71.2411V30.6385H68.7273V32.8964H67.6149V27.2929Z" fill="#1D9BD7"/>
<path d="M74.6807 28.2089H72.8767V27.2945H77.5989V28.2089H75.7948V32.898H74.6824V28.2089H74.6807Z" fill="#1D9BD7"/>
<path d="M79.1998 27.2929H80.3123V32.8964H79.1998V27.2929Z" fill="#1D9BD7"/>
<path d="M82.2434 27.2929H83.4136L85.49 30.622L85.8778 31.3878L85.8366 27.2912H86.9408V32.8947H85.7788L83.7025 29.5739L83.3063 28.7915L83.3559 32.8964H82.2434V27.2929Z" fill="#1D9BD7"/>
<path d="M92.9602 32.898L92.8694 32.1899C92.5228 32.7577 91.9385 33.0218 91.2453 33.0218C89.7037 33.0218 88.6903 31.9176 88.6903 30.1037C88.6903 28.2898 89.7037 27.1691 91.3443 27.1691C92.5063 27.1691 93.4867 27.8029 93.7425 29.0243H92.5805C92.4072 28.4235 91.9385 28.0934 91.3113 28.0934C90.3722 28.0934 89.8275 28.851 89.8275 30.1037C89.8275 31.3564 90.3969 32.0975 91.3526 32.0975C92.0458 32.0975 92.6053 31.7014 92.6796 30.7705H91.4681V29.9304H93.7342V32.898H92.9602Z" fill="#1D9BD7"/>
<path d="M97.9761 26.9644H99.039V34.7202H97.9761V26.9644Z" fill="#1D9BD7"/>
<path d="M103.385 27.2929H105.469C106.813 27.2929 107.645 27.9861 107.645 29.1315C107.645 30.277 106.805 30.9851 105.486 30.9851H104.497V32.898H103.385V27.2945V27.2929ZM104.497 28.1759V30.1037H105.428C106.138 30.1037 106.508 29.7241 106.508 29.1398C106.508 28.5555 106.128 28.1759 105.453 28.1759H104.497Z" fill="#1D9BD7"/>
<path d="M109.305 27.2929H113.245V28.1742H110.418V29.5755H112.931V30.4487H110.418V32.015H113.245V32.8964H109.305V27.2929Z" fill="#1D9BD7"/>
<path d="M114.962 27.2929H117.153C118.414 27.2929 119.197 27.9283 119.197 28.95C119.197 29.5755 118.924 30.0129 118.447 30.2687C118.736 30.4503 118.91 30.7457 119.023 31.2079L119.444 32.898H118.291L117.96 31.4142C117.828 30.8365 117.614 30.721 117.063 30.721H116.074V32.8964H114.962V27.2929ZM116.074 28.1759V29.8495H117.104C117.731 29.8495 118.06 29.5194 118.06 29.0094C118.06 28.4994 117.721 28.1775 117.129 28.1775H116.074V28.1759Z" fill="#1D9BD7"/>
<path d="M121.047 27.2929H122.522L123.94 30.9108L124.147 31.6106L124.361 30.9108L125.771 27.2929H127.205V32.8964H126.101L126.142 28.5456L125.729 29.8396L124.526 32.898H123.727L122.516 29.8248L122.112 28.5638L122.161 32.898H121.049V27.2945L121.047 27.2929Z" fill="#1D9BD7"/>
<path d="M129.136 27.2929H130.249V32.8964H129.136V27.2929Z" fill="#1D9BD7"/>
<path d="M133.654 28.2089H131.85V27.2945H136.572V28.2089H134.768V32.898H133.655V28.2089H133.654Z" fill="#1D9BD7"/>
<path d="M139.648 28.2089H137.844V27.2945H142.566V28.2089H140.761V32.898H139.648V28.2089Z" fill="#1D9BD7"/>
<path d="M144.169 27.2929H145.281V32.8964H144.169V27.2929Z" fill="#1D9BD7"/>
<path d="M147.211 27.2929H148.381L150.457 30.622L150.845 31.3878L150.804 27.2912H151.908V32.8947H150.746L148.67 29.5739L148.274 28.7915L148.323 32.8964H147.211V27.2929Z" fill="#1D9BD7"/>
<path d="M157.928 32.898L157.837 32.1899C157.49 32.7577 156.906 33.0218 156.213 33.0218C154.671 33.0218 153.658 31.9176 153.658 30.1037C153.658 28.2898 154.671 27.1691 156.312 27.1691C157.474 27.1691 158.454 27.8029 158.71 29.0243H157.548C157.375 28.4235 156.906 28.0934 156.279 28.0934C155.34 28.0934 154.795 28.851 154.795 30.1037C154.795 31.3564 155.364 32.0975 156.32 32.0975C157.013 32.0975 157.573 31.7014 157.647 30.7705H156.436V29.9304H158.702V32.898H157.928Z" fill="#1D9BD7"/>
</svg>
